# xmcd CD database file
#
# Track frame offsets:
#	150
#	17039
#	36305
#	56174
#	72187
#	91417
#	108777
#	124499
#	141724
#	158722
#	179003
#	195864
#
# Disc length: 2888 seconds
#
# Revision: 0
# Processed by: cddbd v1.5.2PL0 Copyright (c) Steve Scherf et al.
# Submitted via: Feurio! 1.68 - http://www.feurio.com
#
DISCID=ad0b460c
DTITLE=Abi Tapia - One Foot Out The Door
DYEAR=2005
DGENRE=
TTITLE0=Cried Wolf
TTITLE1=Nothing to Hold Me Down
TTITLE2=Iowa
TTITLE3=Big Front Porch
TTITLE4=Calamine Lotion
TTITLE5=For a While
TTITLE6=Selective Memory
TTITLE7=The Way to My Heart
TTITLE8=Hand Over Your Heart
TTITLE9=Drive Away Slow
TTITLE10=Lone Star
TTITLE11=Somewhere to Go
EXTD=
EXTT0=
EXTT1=
EXTT2=
EXTT3=
EXTT4=
EXTT5=
EXTT6=
EXTT7=
EXTT8=
EXTT9=
EXTT10=
EXTT11=
PLAYORDER=
